<?xml version="1.0" encoding="utf-8" ?><svg xmlns="http://www.w3.org/2000/svg" xmlns:xlink="http://www.w3.org/1999/xlink" width="1024" height="1024" viewBox="0 0 1024 1024"><path fill="#8b1a1a" d="M562.035 584.956C609.211 603.908 661.365 653.645 683.504 699.118C697.097 727.038 704.298 758.833 693.846 789.06C683.452 819.118 663.694 835.202 637.186 850.608C629.428 855.117 621.633 859.622 613.547 863.522C579.629 879.883 531.446 895.937 494.224 883.941C480.484 879.512 468.978 870.701 455.385 865.965C431.791 859.224 413.314 865.548 389.218 855.354C362.759 844.161 342.434 825.678 330.697 799.286C318.202 771.191 319.705 742.453 331.136 714.569C354.442 657.416 405.39 609.674 461.568 585.614C466.547 591.827 470.842 597.024 477.441 601.63C490.871 610.907 507.445 614.447 523.492 611.466C540.46 608.37 552.515 598.865 562.035 584.956Z"/><path fill="#5c2d91" d="M404.5 137.185C434.837 135.388 459.454 140.573 486.864 153.663C533.241 175.991 568.785 215.909 585.605 264.556C599.252 303.214 603.003 344.911 592.982 384.599C591.13 391.934 589.071 403.722 585.855 410.436C556.169 429.381 530.856 454.428 511.598 483.912C508.061 478.686 505.038 473.603 501.338 468.306C485.715 445.939 469.905 430.799 449.168 413.535C391.346 366.524 307.066 334.102 233.393 359.815C224.289 362.993 215.972 367.015 207.365 371.302C206.183 365.376 205.444 358.564 204.837 352.501C200.482 309.015 211.874 265.474 239.643 231.424C251.79 216.529 270.688 202.207 289.37 197.192C301.131 194.035 307.776 193.313 318.897 186.88C329.962 180.479 332.964 174.978 341.351 166.431C359.06 148.385 379.718 139.57 404.5 137.185Z"/><path fill="#8b1a1a" d="M279.782 375.189C296.577 374.249 313.418 375.789 329.765 379.758C383.271 392.818 442.292 433.224 477.38 475.396C481.333 480.146 488.236 488.413 491.337 493.561C488.596 495.089 485.538 496.242 482.763 497.76C467.821 505.937 455.824 519.81 451.406 536.447C448.701 546.634 449.295 554.619 450.614 564.934C395.149 587.132 345.663 634.031 317.546 686.459C310.818 699.186 305.714 712.806 301.541 726.555C264.492 726.762 232.459 713.794 204.147 690.262C182.82 671.974 163.628 646.791 154.999 620.028C146.34 593.175 156.638 573.3 158.445 547.777C159.298 535.715 151.435 517.323 150.27 503.373C147.812 473.931 156.48 448.392 175.721 425.797C203.676 394.157 238.497 378.873 279.782 375.189Z"/><path fill="#8b1a1a" d="M725.468 392.742C733.188 392.629 740.906 393.063 748.565 394.04C781.55 398.002 811.568 415.025 831.901 441.297C861.316 479.606 879.613 528.267 873.817 576.978C870.646 603.63 855.764 614.595 842.334 635.139C837.595 643.474 835.79 653.448 833.203 662.477C823.381 696.753 792.84 723.072 758.416 730.724C746.915 733.281 732.542 734.634 720.783 732.881C718.346 722.908 715.415 713.062 712.003 703.38C706.757 689.041 698.315 675.253 689.857 662.593C666.616 627.059 635.122 597.676 598.063 576.953C589.763 572.326 581.531 568.592 572.939 564.585C578.942 531.31 562.909 507.446 533.109 494.023C539.544 486.203 546.101 477.949 553.18 470.738C598.117 424.958 660.863 393.805 725.468 392.742Z"/><path fill="#5c2d91" d="M616.66 143.776C632.038 142.715 650.509 144.536 665.284 148.757C688.923 155.511 714.059 170.632 726.26 192.677C731.772 202.636 734.046 211.154 742.984 219.213C750.423 225.92 757.792 229.732 766.67 234.146C784.478 243.001 796.806 256.132 806.333 273.57C825.838 309.274 825.191 349.923 814.062 388.043C789.003 375.492 764.6 369.732 736.711 368.043C700.196 367.655 673.934 371.698 639.289 384.619C630.837 387.771 623.285 391.648 615.083 394.983C620.974 374.958 623.465 346.29 622.977 325.426C621.861 277.794 606.064 229.697 576.34 192.181C567.037 180.441 556.297 170.995 545.595 160.767C567.4 151.421 592.913 144.589 616.66 143.776Z"/><path fill="#e8b800" d="M506.196 506.583C530.311 503.401 552.445 520.356 555.652 544.468C558.86 568.579 541.928 590.731 517.819 593.964C493.675 597.2 471.484 580.238 468.272 556.091C465.06 531.944 482.045 509.771 506.196 506.583Z"/></svg>